/* XPM */
static char *disk_xpm[] = {
/* width height ncolors chars_per_pixel */
"32 32 6 1",
/* colors */
"  s None c None",
"X c black",
"% c black",
"( c gray",
", c skyblue",
"0 c white",
/* pixels */
"                                ",
"   %%%XXXXXXXXXXXXXXXXXXXXXX%%% ",
"  %%%%X,,,,,,,,,,,,,,,,,,,,X%%%%",
"  %%%%X,,,,,,,,,,,,,,,,,,,,X%%%%",
" (%X0%X,,,,,,,,,,,,,,,,,,,,X%%%%",
" (%X(%X00000000000000000000X%%%%",
" (%XX%X00000000000000000000X%%%%",
" (%%%%X00000000000000000000X%%%%",
" (%%%%X00000000000000000000X%%%%",
" (%%%%X00000000000000000000X%%%%",
" (%%%%X00000000000000000000X%%%%",
" (%%%%X00000000000000000000X%%%%",
" (%%%%X00000000000000000000X%%%%",
" (%%%%X00000000000000000000X%%%%",
" (%%%%X00000000000000000000X%%%%",
" (%%%%X00000000000000000000X%%%%",
" (%%%%X00000000000000000000X%%%%",
" (%%%%X00000000000000000000X%%%%",
" (%%%%%XXXXXXXXXXXXXXXXXXXX%%%%%",
" (%%%%%%%%%%%%%%%%%%%%%%%%%%%%%%",
" (%%%%%%%%%%%%%%%%%%%%%%%%%%%%%%",
" (%%%%%%%%%%%%%%%%%%%%%%%%%%%%%%",
" (%%%%%%(((((((((((((((((%%%%%%%",
" (%%%%%(%%%%%(0(((((((((((%%%%%%",
" (%%%%%(%%%%%(0(((((((((((%%%%%%",
" (%%%%%(%%%%%(0(((((((((((%%%%%%",
" (%%%%%(%%%%%(0(((((((((((%%%%%%",
" (%%%%%(%%%%%(0(((((((((((%%%%%%",
" (%%%%%(%%%%%(0(((((((((((%%%%%%",
" (((%%%(((((((((((((((((((%%%%%%",
"   ((%%XXXXXXXXXXXXXXXXXXX%%%%%%",
"                                "
};


