/* XPM */
static char * balloon_xpm[] = {
"18 18 5 1",
" 	s None	c None",
"X	c #eecc33",
"L	c #efef55",
"W	c white",
"@	c #222222",
"   @@@@@@@@@@@@   ",
"  @XXXXXXXXXXXX@  ",
" @XXXXXXXXXXXXXX@ ",
"@XXXXXXXXXXXXXXXX@",
"@LLLLLLLLLLLLLLLL@",
"@LLLLLLLLLLLLLLLL@",
"@LLLLLLLLLLLLLLLL@",
"@WWWWWWWWWWWWWWWW@",
"@WWWWWWWWWWWWWWWW@",
"@WWWWWWWWWWWWWWWW@",
"@WWWWWWWWWWWWWWWW@",
"@LLLLLLLLLLLLLLLL@",
"@LLLLLLLLLLLLLLLL@",
"@LLLLLLLLLLLLLLLL@",
"@XXXXXXXXXXXXXXXX@",
" @XXXXXXXXXXXXXX@ ",
"  @XXXXXXXXXXXX@  ",
"   @@@@@@@@@@@@   "};?
