/* XPM */
static char * label2_xpm[] = {
"14 18 5 1",
" 	s None	c None",
".	c #aaaaaaaaaaaa",
"X	c #777777777777",
"o	c black",
"O	c white",
"  ........Xo  ",
" ........XXoo ",
"...OOO...XXooX",
"..OOOO..XXXooX",
"..OOOO..XXXooX",
"..OOOO..XXXooX",
"..OOO...XXXooX",
"........XXXooX",
".......XXXXooX",
"...XXXXXXXXooX",
".XXXXXXXXXoooX",
"XXXXXXXXXooooX",
"XXXXXXXXoooooX",
"XXXXXXXooooooX",
"oooXXXoooooooX",
"ooooooooooooXX",
" oooooooooXXX ",
"  XXXXXXXXXX  "};
