/* XPM */
static char * label1_xpm[] = {
"13 18 4 1",
" 	s None	c None",
".	c red",
"X	c white",
"o	c IndianRed",
"             ",
"    .....    ",
"   .......   ",
"  ......X..  ",
" ......XXX.. ",
".......XXXX..",
"........XX...",
"o............",
"oo...........",
"oo...........",
"oo...........",
"ooo..........",
"ooooo........",
" ooooo...... ",
"  ooooo....  ",
"   ooooooo   ",
"    ooooo    ",
"             "};
