/* XPM */
static char * MailEmpty_xpm[] = {
"30 22 8 1",
" 	s None	c None",
".	c gray70",
"X	c grey90",
"o	c gray80",
"O	c gray50",
"+	c red",
"@	c black",
"#	c darkred",
"                              ",
"                              ",
"                              ",
"                    ......    ",
"              ......XXXXX..   ",
"          .....XXXXXX.......  ",
"         .XXXX.X.....ooooXXO  ",
"        .XXXXXX..ooooXXXXXXO  ",
"        .XXXXXX..XXXXXXXXo.O  ",
"        .XXXXXXoOXXXXXXo.+.@  ",
"        .XXXXXXoOXXXXo.+++.@  ",
"        .XXXXXXoOXo..+++++O@  ",
"        .XXXXXooO.+++++##+O@  ",
"        OoooooooO.+++##O##O@  ",
"         OOOooooO.++#OOOOO@@  ",
"           OOOOOOO##OO@@@@    ",
"             OOOOO@@@@        ",
"               O@@X.O@        ",
"                  X.O@        ",
"                  X.O@        ",
"                  X.O@        ",
"                  .O@@        "};
