/* XPM */
static char * MailFull_xpm[] = {
"30 22 9 1",
" 	s None	c None",
".	c gray70",
"X	c gray90",
"o	c gray80",
"O	c gray50",
"+	c red",
"@	c black",
"#	c darkred",
"$	c white",
"                              ",
"                              ",
"                              ",
"                    ......    ",
"              ......XXXXXX.   ",
"          oooo.XXXXXX.......  ",
"         oOOOOoX..+++++oooX@  ",
"        oOOOOOOo..++++#XXXX@  ",
"        oOOO@@@O.o++##XXXXX@  ",
"        oO@@XX.@OX++#XXXXoo@  ",
"       @@@$$XX@.OX++#XXoo..@  ",
"     @@$$$$$$@@.OX++#Xoo...@  ",
"     @@@@@@@@@X.OX++#o....O@  ",
"      @$$$$$$$X.Oo+++#..OOO@  ",
"       @$$$$$$X.@.+++#OOOO@@  ",
"      .O@$$$$$$X@.OOOO@@@@    ",
"     .XXO@$$$$$@@O@@@@        ",
"    .XXXXO@$$$@@@@X.O@        ",
"    .XXXXXO@$@O@@ X.O@        ",
"    .XXXXooO@@@@  X.O@        ",
"     OooooOO@     X.O@        ",
"      OOOO        .O@@        "};
